<svg viewBox="-960 -490 1920 980" width="1920" height="980" style="background-color: rgb(255, 255, 255);" xmlns="http://www.w3.org/2000/svg"><path d="M-34.83481314917744,37.05040683619277L-77.5745444191525,28.91376519908151M-77.57454441915249,-172.62479821556832L-77.5745444191525,28.91376519908151M-77.5745444191525,28.91376519908151L-163.90855859887043,126.65208354724753M-34.83481314917743,-164.48815657845705L-34.83481314917744,37.05040683619277M-34.83481314917744,37.05040683619277L-121.16882732889538,134.7887251843588" style="fill:none;stroke:rgb(0,0,0);stroke-width:1;stroke-linecap:round"></path><path d="M-34.83481314917746,37.05040683619277L-77.5745444191525,28.913765199081514L-77.57454441915249,-172.62479821556832zM-163.90855859887046,126.65208354724753L-77.5745444191525,28.913765199081514L-34.83481314917746,37.05040683619277zM-34.83481314917745,-164.48815657845705L-34.83481314917746,37.05040683619277L-77.57454441915249,-172.62479821556832z" style="fill:rgb(238,238,238); fill-opacity: 0.4"></path><path d="M209.33875234039792,72.19988513197049L31.770182544725113,38.39499737272627M31.770182544725127,-110.8446660952368L31.770182544725113,38.39499737272627M31.770182544725113,38.39499737272627L-32.16030799623744,110.77039536638217M-34.83481314917743,-164.48815657845705L-77.57454441915249,-172.62479821556832M-77.57454441915249,-172.62479821556832L-163.90855859887043,-74.8864798674023" style="fill:none;stroke:rgb(0,0,0);stroke-width:1;stroke-linecap:round"></path><path d="M-121.16882732889539,134.7887251843588L-34.83481314917746,37.05040683619277L-34.83481314917745,-164.48815657845705z" style="fill:rgb(238,238,238); fill-opacity: 0.4"></path><path d="M-68.8864396126439,-2.3112000403426163L-111.62617088261896,-10.447841677453868M-111.62617088261896,-51.413644742132774L-111.62617088261896,-10.447841677453868M-111.62617088261896,-10.447841677453868L-129.17488296405298,9.418970080482957M-34.83481314917743,-164.48815657845705L-121.16882732889538,-66.74983823029105" style="fill:none;stroke:rgb(0,0,0);stroke-width:1;stroke-linecap:round"></path><path d="M-68.88643961264391,-2.31120004034261L-111.62617088261896,-10.447841677453864L-111.62617088261896,-51.41364474213276z" style="fill:rgb(153,221,255); fill-opacity: 0.4"></path><path d="M209.3387523403979,72.19988513197049L31.770182544725113,38.39499737272628L31.770182544725127,-110.8446660952368z" style="fill:rgb(238,238,238); fill-opacity: 0.4"></path><path d="M-68.8864396126439,-43.27700310502151L-68.8864396126439,-2.3112000403426163M-68.8864396126439,-2.3112000403426163L-86.43515169407792,17.55561171759421M-68.88644095460377,-43.27700411016185L-68.88644095460377,-2.311201045482955M-68.88644095460377,-2.311201045482955L-86.43515303603778,17.555610712453866M-68.88644095460377,-2.311201045482955L0.057467137424287225,1.4357374390092903" style="fill:none;stroke:rgb(0,0,0);stroke-width:1;stroke-linecap:round"></path><path d="M-129.17488296405298,9.41897008048296L-111.62617088261896,-10.447841677453864L-68.88643961264391,-2.31120004034261z" style="fill:rgb(153,221,255); fill-opacity: 0.4"></path><path d="M-77.57454441915249,-172.62479821556832L-77.5745444191525,28.913765199081514L-163.90855859887043,-74.8864798674023zM-121.16882732889539,134.7887251843588L-163.90855859887046,126.65208354724753L-34.83481314917746,37.05040683619277z" style="fill:rgb(238,238,238); fill-opacity: 0.4"></path><path d="M-68.8864396126439,-43.27700310502151L-111.62617088261896,-51.413644742132774M-111.62617088261896,-51.413644742132774L-129.17488296405298,-31.546832984195945" style="fill:none;stroke:rgb(0,0,0);stroke-width:1;stroke-linecap:round"></path><path d="M-68.88643961264391,-43.2770031050215L-68.88643961264391,-2.31120004034261L-111.62617088261896,-51.41364474213276zM-111.62617088261896,-51.41364474213276L-111.62617088261896,-10.447841677453864L-129.17488296405298,-31.546832984195937z" style="fill:rgb(153,221,255); fill-opacity: 0.4"></path><path d="M209.33875234039792,-77.03977833599258L209.33875234039792,72.19988513197049M209.33875234039792,72.19988513197049L145.40826179943534,144.57528312562638" style="fill:none;stroke:rgb(0,0,0);stroke-width:1;stroke-linecap:round"></path><path d="M-111.62617088261896,-10.447841677453864L-129.17488296405298,9.41897008048296L-129.17488296405298,-31.546832984195937z" style="fill:rgb(153,221,255); fill-opacity: 0.4"></path><path d="M-32.16030799623745,110.77039536638217L31.770182544725113,38.39499737272628L209.3387523403979,72.19988513197049z" style="fill:rgb(238,238,238); fill-opacity: 0.4"></path><path d="M-68.88643999845043,-43.27700317847001L-68.88643999845043,-2.3112001137911156L-86.43515207988445,17.555611644145706z" style="fill:rgb(255,187,187); fill-opacity: 0.4"></path><path d="M-86.43515169407793,17.555611717594214L-68.88643961264391,-2.31120004034261L-68.88643961264391,-43.2770031050215zM-86.43515169407793,17.555611717594214L-129.17488296405298,9.41897008048296L-68.88643961264391,-2.31120004034261z" style="fill:rgb(153,221,255); fill-opacity: 0.4"></path><path d="M-68.8864396126439,-43.27700310502151L-86.43515169407792,-23.410191347084695M-68.88644095460377,-43.27700411016185L-86.43515303603778,-23.41019235222503M-68.88644095460377,-43.27700411016185L0.057467137424287225,1.4357374390092903M-129.17488296405298,-31.546832984195945L-129.17488296405298,9.418970080482957M-129.17488296405298,9.418970080482957L-86.43515169407792,17.55561171759421" style="fill:none;stroke:rgb(0,0,0);stroke-width:1;stroke-linecap:round"></path><path d="M-68.88643999845043,-2.3112001137911156L-68.88643999845043,-43.27700317847001L0.057467136024226616,1.435737468977974z" style="fill:rgb(255,187,187); fill-opacity: 0.4"></path><path d="M-86.43515169407792,-23.41019134708469L-68.88643961264391,-43.2770031050215L-111.62617088261896,-51.41364474213276z" style="fill:rgb(153,221,255); fill-opacity: 0.4"></path><path d="M-77.5745444191525,28.913765199081514L-163.90855859887046,126.65208354724753L-163.90855859887043,-74.8864798674023z" style="fill:rgb(238,238,238); fill-opacity: 0.4"></path><path d="M209.33875234039792,-77.03977833599258L31.770182544725127,-110.8446660952368M31.770182544725127,-110.8446660952368L-32.16030799623744,-38.469268101580894" style="fill:none;stroke:rgb(0,0,0);stroke-width:1;stroke-linecap:round"></path><path d="M-86.43515207988445,17.555611644145706L-68.88643999845043,-2.3112001137911156L0.057467136024226616,1.435737468977974z" style="fill:rgb(255,187,187); fill-opacity: 0.4"></path><path d="M-129.17488296405298,-31.546832984195937L-86.43515169407792,-23.41019134708469L-111.62617088261896,-51.41364474213276z" style="fill:rgb(153,221,255); fill-opacity: 0.4"></path><path d="M-86.43515169407792,-23.410191347084695L-86.43515169407792,17.55561171759421M-86.43515303603778,17.555610712453866L-86.43515303603778,-23.41019235222503M-86.43515303603778,17.555610712453866L0.057467137424287225,1.4357374390092903" style="fill:none;stroke:rgb(0,0,0);stroke-width:1;stroke-linecap:round"></path><path d="M-68.88643999845043,-43.27700317847001L-86.43515207988445,17.555611644145706L-86.43515207988443,-23.41019142053319z" style="fill:rgb(255,187,187); fill-opacity: 0.4"></path><path d="M-86.43515169407792,-23.41019134708469L-86.43515169407793,17.555611717594214L-68.88643961264391,-43.2770031050215zM-129.17488296405298,9.41897008048296L-86.43515169407793,17.555611717594214L-86.43515169407792,-23.41019134708469zM-129.17488296405298,-31.546832984195937L-129.17488296405298,9.41897008048296L-86.43515169407792,-23.41019134708469z" style="fill:rgb(153,221,255); fill-opacity: 0.4"></path><path d="M-129.17488296405298,-31.546832984195945L-86.43515169407792,-23.410191347084695" style="fill:none;stroke:rgb(0,0,0);stroke-width:1;stroke-linecap:round"></path><path d="M-68.88643999845043,-43.27700317847001L-86.43515207988443,-23.41019142053319L0.057467136024226616,1.435737468977974z" style="fill:rgb(255,187,187); fill-opacity: 0.4"></path><path d="M209.33875234039792,-77.03977833599258L209.3387523403979,72.19988513197049L31.770182544725127,-110.8446660952368zM-121.16882732889539,-66.74983823029105L-34.83481314917745,-164.48815657845705L-77.57454441915249,-172.62479821556832zM31.770182544725127,-110.8446660952368L31.770182544725113,38.39499737272628L-32.160307996237435,-38.469268101580894z" style="fill:rgb(238,238,238); fill-opacity: 0.4"></path><path d="M-86.43515207988443,-23.41019142053319L-86.43515207988445,17.555611644145706L0.057467136024226616,1.435737468977974z" style="fill:rgb(255,187,187); fill-opacity: 0.4"></path><path d="M-163.90855859887043,-74.8864798674023L-163.90855859887043,126.65208354724753M-163.90855859887043,126.65208354724753L-121.16882732889538,134.7887251843588M-86.43515303603778,-23.41019235222503L0.057467137424287225,1.4357374390092903" style="fill:none;stroke:rgb(0,0,0);stroke-width:1;stroke-linecap:round"></path><path d="M31.770182544725113,38.39499737272628L-32.16030799623745,110.77039536638217L-32.160307996237435,-38.469268101580894z" style="fill:rgb(238,238,238); fill-opacity: 0.4"></path><path d="M-121.16882732889538,-66.74983823029105L-121.16882732889538,134.7887251843588" style="fill:none;stroke:rgb(0,0,0);stroke-width:1;stroke-linecap:round"></path><path d="M-121.16882732889539,-66.74983823029105L-121.16882732889539,134.7887251843588L-34.83481314917745,-164.48815657845705zM145.4082617994353,144.57528312562638L-32.16030799623745,110.77039536638217L209.3387523403979,72.19988513197049zM145.4082617994353,144.57528312562638L209.3387523403979,72.19988513197049L209.33875234039792,-77.03977833599258z" style="fill:rgb(238,238,238); fill-opacity: 0.4"></path><path d="M-32.16030799623744,-38.469268101580894L-32.16030799623744,110.77039536638217M-32.16030799623744,110.77039536638217L145.40826179943534,144.57528312562638M209.33875234039792,-77.03977833599258L145.40826179943537,-4.664380342336695" style="fill:none;stroke:rgb(0,0,0);stroke-width:1;stroke-linecap:round"></path><path d="M-163.90855859887046,126.65208354724753L-121.16882732889539,134.7887251843588L-121.16882732889539,-66.74983823029105zM-163.90855859887043,-74.8864798674023L-121.16882732889539,-66.74983823029105L-77.57454441915249,-172.62479821556832zM145.40826179943534,-4.664380342336691L209.33875234039792,-77.03977833599258L31.770182544725127,-110.8446660952368zM-163.90855859887043,-74.8864798674023L-163.90855859887046,126.65208354724753L-121.16882732889539,-66.74983823029105zM-32.160307996237435,-38.469268101580894L145.40826179943534,-4.664380342336691L31.770182544725127,-110.8446660952368z" style="fill:rgb(238,238,238); fill-opacity: 0.4"></path><path d="M145.40826179943537,-4.664380342336695L145.40826179943534,144.57528312562638" style="fill:none;stroke:rgb(0,0,0);stroke-width:1;stroke-linecap:round"></path><path d="M-32.16030799623745,110.77039536638217L145.4082617994353,144.57528312562638L145.40826179943534,-4.664380342336691zM145.40826179943534,-4.664380342336691L145.4082617994353,144.57528312562638L209.33875234039792,-77.03977833599258z" style="fill:rgb(238,238,238); fill-opacity: 0.4"></path><path d="M-163.90855859887043,-74.8864798674023L-121.16882732889538,-66.74983823029105" style="fill:none;stroke:rgb(0,0,0);stroke-width:1;stroke-linecap:round"></path><path d="M-32.160307996237435,-38.469268101580894L-32.16030799623745,110.77039536638217L145.40826179943534,-4.664380342336691z" style="fill:rgb(238,238,238); fill-opacity: 0.4"></path><path d="M-32.16030799623744,-38.469268101580894L145.40826179943537,-4.664380342336695" style="fill:none;stroke:rgb(0,0,0);stroke-width:1;stroke-linecap:round"></path></svg>