<svg version="1.1" xmlns="http://www.w3.org/2000/svg" viewBox="0 0 904.411372242989 443.9978374589888" width="904.411372242989" height="443.9978374589888">
  <!-- svg-source:excalidraw -->
  
  <defs>
    <style class="style-fonts">
      @font-face {
        font-family: "Virgil";
        src: url("https://excalidraw.com/Virgil.woff2");
      }
      @font-face {
        font-family: "Cascadia";
        src: url("https://excalidraw.com/Cascadia.woff2");
      }
    </style>
  </defs>
  <g stroke-linecap="round"><g transform="translate(208.48360021498985 89.07006543098953) rotate(0 285.0908952265372 124.43360349255238)"><path d="M1.12 1.16 C34.13 42.37, 104.18 240.53, 198.98 247.92 C293.78 255.31, 508.31 79.39, 569.93 45.48 M0.25 0.72 C33.01 41.55, 103.13 239.17, 198.03 246.28 C292.93 253.39, 507.86 76.89, 569.65 43.39" stroke="#000000" stroke-width="1" fill="none"></path></g></g><mask></mask><g stroke-linecap="round"><g transform="translate(88.48360021498985 11.07006543098953) rotate(0 0.7296777989941177 210.92885329850486)"><path d="M1.16 -0.02 C1.2 70.28, 1.03 352.64, 0.92 422.93 M0.31 -1.07 C0.22 69.42, 0.51 350.64, 0.45 421.29" stroke="#000000" stroke-width="1" fill="none"></path></g></g><mask></mask><g stroke-linecap="round"><g transform="translate(11.483600214989849 385.0700654309891) rotate(0 440.7220859065047 -0.2338200605749421)"><path d="M-0.02 0.92 C146.95 0.81, 735.98 0.72, 882.93 0.48 M-1.48 0.35 C145.31 0.39, 735.42 -1.41, 882.47 -1.39" stroke="#000000" stroke-width="1" fill="none"></path></g></g><mask></mask><g transform="translate(-42.51639978501015 174.07006543098953) rotate(270 89.4198989868164 12.5)"><text x="0" y="0" font-family="Virgil, Segoe UI Emoji" font-size="20px" fill="#000000" text-anchor="start" style="white-space: pre;" direction="ltr" dominant-baseline="text-before-edge">función de pérdida</text></g><g transform="translate(400.48360021498974 404.07006543098964) rotate(0 48.79994201660156 12.500000000000057)"><text x="0" y="0" font-family="Virgil, Segoe UI Emoji" font-size="20px" fill="#000000" text-anchor="start" style="white-space: pre;" direction="ltr" dominant-baseline="text-before-edge">parámetro</text></g><g stroke-linecap="round" transform="translate(261.99044118621424 197.91939003530456) rotate(0 15 15)"><path d="M10.81 0.7 C13.76 -0.2, 19.87 0.34, 22.73 1.75 C25.58 3.15, 26.9 6.28, 27.96 9.14 C29.01 12, 30.03 15.74, 29.05 18.9 C28.08 22.07, 24.83 26.21, 22.09 28.13 C19.35 30.05, 15.62 30.96, 12.61 30.42 C9.6 29.88, 6.24 27.32, 4.03 24.87 C1.81 22.42, -0.47 18.78, -0.68 15.72 C-0.9 12.66, 0.5 8.97, 2.76 6.51 C5.01 4.04, 10.83 2.02, 12.84 0.93 C14.86 -0.17, 14.61 -0.24, 14.85 -0.06 M19.58 1.95 C22.63 2.63, 26.84 3.83, 28.41 6.32 C29.98 8.81, 29.24 13.65, 28.99 16.89 C28.74 20.13, 29.13 23.39, 26.91 25.76 C24.7 28.12, 18.91 30.9, 15.71 31.1 C12.5 31.29, 10.19 28.98, 7.68 26.93 C5.18 24.89, 1.68 21.98, 0.67 18.82 C-0.33 15.66, 0.23 10.92, 1.65 7.99 C3.08 5.06, 6.41 2.67, 9.23 1.25 C12.05 -0.18, 16.89 -0.7, 18.57 -0.57 C20.25 -0.45, 19.31 1.56, 19.3 1.99" stroke="#364fc7" stroke-width="1" fill="none"></path></g><g stroke-linecap="round" transform="translate(282.6653923814916 233.47590942887336) rotate(0 15 15)"><path d="M10.07 0.48 C13.12 -0.85, 17.34 0.48, 20.41 1.48 C23.49 2.48, 26.89 3.79, 28.52 6.47 C30.15 9.16, 30.72 14.4, 30.17 17.57 C29.62 20.75, 27.71 23.5, 25.2 25.52 C22.7 27.54, 18.45 29.3, 15.16 29.68 C11.87 30.07, 7.91 29.65, 5.47 27.85 C3.03 26.06, 0.97 22.23, 0.51 18.93 C0.05 15.63, 1.26 11.16, 2.7 8.04 C4.14 4.91, 7.79 1.29, 9.16 0.19 C10.53 -0.91, 10.89 1.02, 10.95 1.42 M11.08 0.13 C13.98 -0.69, 19.48 -0.27, 22.52 1.26 C25.56 2.8, 28.03 6.19, 29.31 9.33 C30.59 12.48, 31.1 17.02, 30.19 20.12 C29.29 23.21, 26.94 26.34, 23.87 27.92 C20.81 29.51, 15.35 30.08, 11.8 29.65 C8.26 29.22, 4.48 27.86, 2.63 25.33 C0.77 22.8, 0.49 17.72, 0.66 14.47 C0.83 11.21, 2 8.37, 3.65 5.79 C5.29 3.21, 9.18 -0.29, 10.53 -1.02 C11.89 -1.74, 11.43 0.93, 11.76 1.43" stroke="#364fc7" stroke-width="1" fill="none"></path></g><g stroke-linecap="round" transform="translate(309.7741828744607 269.8016886894517) rotate(0 15 15)"><path d="M18.25 1.09 C21.33 1.55, 24.75 3.37, 26.67 5.96 C28.59 8.56, 29.96 13.36, 29.77 16.68 C29.58 19.99, 27.7 23.55, 25.51 25.85 C23.33 28.14, 19.75 30.15, 16.68 30.47 C13.61 30.8, 9.74 29.86, 7.1 27.79 C4.46 25.72, 1.82 21.39, 0.83 18.06 C-0.16 14.74, -0.12 10.53, 1.17 7.83 C2.45 5.14, 5.47 2.97, 8.52 1.9 C11.56 0.84, 17.24 1.56, 19.43 1.46 C21.62 1.37, 21.74 1.16, 21.66 1.33 M19.25 -0.74 C22.26 -0.26, 25.78 3.19, 27.81 5.89 C29.84 8.59, 31.68 12.37, 31.41 15.45 C31.15 18.53, 28.58 22.03, 26.21 24.37 C23.83 26.71, 20.21 29.23, 17.15 29.51 C14.08 29.78, 10.49 27.75, 7.82 26.01 C5.15 24.27, 2.46 21.72, 1.14 19.09 C-0.18 16.46, -1.27 13.38, -0.11 10.23 C1.06 7.08, 4.93 1.81, 8.11 0.2 C11.29 -1.41, 17.08 0.36, 18.97 0.57 C20.86 0.77, 19.7 1.36, 19.46 1.42" stroke="#364fc7" stroke-width="1" fill="none"></path></g><g stroke-linecap="round" transform="translate(335.7986217477108 292.0308968936864) rotate(0 15 15)"><path d="M13.94 0.64 C16.97 0.14, 21.35 1.15, 23.77 2.82 C26.18 4.49, 27.76 7.62, 28.42 10.67 C29.08 13.71, 28.8 18.28, 27.73 21.08 C26.66 23.89, 24.67 26.13, 22.03 27.51 C19.38 28.9, 15.16 30.15, 11.86 29.38 C8.56 28.61, 4.18 25.38, 2.23 22.89 C0.28 20.41, -0.25 17.5, 0.15 14.47 C0.55 11.44, 1.89 7.23, 4.63 4.69 C7.36 2.15, 14.12 -0.06, 16.55 -0.74 C18.97 -1.42, 19.11 0.28, 19.18 0.6 M16.56 1.31 C19.54 1.52, 22.4 3.48, 24.62 5.43 C26.85 7.37, 29.31 9.89, 29.91 12.97 C30.5 16.04, 30.36 21.01, 28.2 23.86 C26.03 26.7, 20.24 29.12, 16.91 30.02 C13.57 30.92, 10.71 30.9, 8.19 29.23 C5.68 27.57, 3.23 23.22, 1.83 20.05 C0.43 16.88, -0.99 13.09, -0.23 10.21 C0.53 7.33, 3.32 4.55, 6.4 2.75 C9.48 0.95, 16.32 -0.15, 18.24 -0.58 C20.17 -1, 18.2 -0.4, 17.95 0.2" stroke="#364fc7" stroke-width="1" fill="none"></path></g><g stroke-linecap="round" transform="translate(356.94347833222633 307.21181956974897) rotate(0 15 15)"><path d="M10.66 1.23 C13.67 0.13, 17.74 0.28, 20.53 1.45 C23.31 2.62, 25.87 5.34, 27.37 8.25 C28.87 11.16, 30.09 15.78, 29.53 18.89 C28.97 22.01, 26.6 25.05, 24.01 26.96 C21.42 28.87, 17.18 30.34, 13.99 30.36 C10.79 30.38, 7.3 29.18, 4.84 27.06 C2.37 24.95, -0.34 21.11, -0.79 17.65 C-1.24 14.19, -0.19 9.22, 2.12 6.29 C4.44 3.36, 11.2 1.03, 13.08 0.07 C14.97 -0.88, 13.52 0.18, 13.43 0.57 M18.17 -0.15 C21.37 0.73, 25.58 4.46, 27.43 7.3 C29.28 10.13, 29.55 13.87, 29.27 16.87 C28.98 19.86, 27.55 23.08, 25.7 25.27 C23.86 27.45, 21.4 29.67, 18.19 29.98 C14.98 30.29, 9.28 28.75, 6.45 27.12 C3.63 25.5, 2.17 23.17, 1.22 20.25 C0.26 17.33, -0.26 12.79, 0.72 9.59 C1.71 6.39, 4.35 2.7, 7.11 1.06 C9.86 -0.58, 15.37 -0.37, 17.25 -0.23 C19.12 -0.1, 18.18 1.37, 18.37 1.86" stroke="#364fc7" stroke-width="1" fill="none"></path></g><g stroke-linecap="round" transform="translate(376.461807487164 316.4288083373581) rotate(0 15 15)"><path d="M16.76 0.62 C19.83 0.7, 24.16 2.14, 26.51 4.52 C28.86 6.91, 31.03 11.52, 30.87 14.93 C30.7 18.34, 27.74 22.4, 25.53 24.98 C23.31 27.56, 20.52 30, 17.58 30.41 C14.63 30.83, 10.75 29.24, 7.86 27.48 C4.97 25.71, 1.46 22.75, 0.25 19.84 C-0.97 16.94, -0.79 13.09, 0.58 10.03 C1.95 6.97, 5.31 3.1, 8.45 1.48 C11.6 -0.14, 17.58 0.24, 19.46 0.33 C21.34 0.43, 19.88 1.8, 19.71 2.03 M12.41 0.66 C15.12 -0.2, 19.19 0.21, 21.8 1.72 C24.41 3.23, 26.89 6.38, 28.07 9.72 C29.26 13.06, 29.87 18.55, 28.91 21.78 C27.96 25, 25.1 27.73, 22.32 29.08 C19.55 30.43, 15.34 30.73, 12.27 29.88 C9.2 29.02, 5.77 26.49, 3.89 23.97 C2.02 21.45, 1.01 18.11, 1.01 14.76 C1.02 11.42, 2.19 6.38, 3.92 3.9 C5.66 1.42, 9.69 0.37, 11.44 -0.13 C13.19 -0.62, 14.11 0.54, 14.44 0.92" stroke="#364fc7" stroke-width="1" fill="none"></path></g><g stroke-linecap="round" transform="translate(395.9801366421016 320.2240390063738) rotate(0 15 15)"><path d="M7.4 1.83 C9.92 0.43, 15.22 0.4, 18.57 1.03 C21.92 1.66, 25.71 3.16, 27.51 5.61 C29.31 8.05, 29.69 12.39, 29.35 15.72 C29.02 19.05, 27.49 23.3, 25.53 25.59 C23.56 27.87, 20.58 29.13, 17.57 29.43 C14.55 29.73, 10.24 28.9, 7.42 27.37 C4.59 25.83, 1.64 23.32, 0.62 20.23 C-0.4 17.13, -0.29 12, 1.29 8.82 C2.88 5.63, 8.12 2.55, 10.12 1.11 C12.12 -0.34, 13.11 0.11, 13.29 0.16 M12.27 1.42 C15.48 0.92, 19.8 1.36, 22.66 2.78 C25.52 4.21, 28.23 7.13, 29.43 9.95 C30.62 12.78, 30.81 16.69, 29.84 19.73 C28.88 22.77, 26.49 26.7, 23.61 28.2 C20.74 29.7, 16.18 29.34, 12.6 28.72 C9.02 28.1, 3.98 26.65, 2.13 24.47 C0.28 22.28, 1.23 18.68, 1.5 15.6 C1.76 12.52, 2.05 8.61, 3.72 5.96 C5.38 3.32, 10 0.78, 11.47 -0.26 C12.94 -1.31, 12.4 -0.48, 12.51 -0.29" stroke="#364fc7" stroke-width="1" fill="none"></path></g><g stroke-linecap="round"><g transform="translate(297.1232165716322 196.427031682373) rotate(0 12.576746329258128 20.392543610947087)"><path d="M-0.39 -0.78 C3.97 6.04, 21.15 33.42, 25.54 40.62 M1.61 1.43 C5.92 8.37, 20.9 35.07, 24.91 41.56" stroke="#5c940d" stroke-width="1" fill="none"></path></g><g transform="translate(297.1232165716322 196.427031682373) rotate(0 12.576746329258128 20.392543610947087)"><path d="M4.89 27.06 C8.9 31.63, 16.52 32.83, 25.27 42.66 M6.67 25.96 C13.17 32.98, 21.21 37.67, 25.66 42.41" stroke="#5c940d" stroke-width="1" fill="none"></path></g><g transform="translate(297.1232165716322 196.427031682373) rotate(0 12.576746329258128 20.392543610947087)"><path d="M19.24 18.65 C19.68 25.25, 23.75 28.54, 25.27 42.66 M21.02 17.55 C22.08 27.72, 24.65 35.61, 25.66 42.41" stroke="#5c940d" stroke-width="1" fill="none"></path></g></g><mask></mask><g stroke-linecap="round"><g transform="translate(324.77418287446056 241.4276239007014) rotate(0 10.454540310868254 14.799085111375803)"><path d="M0.15 0.16 C3.82 5.42, 18.7 25.27, 22.13 30.4 M-1.23 -0.8 C2.36 4.21, 18.2 23.58, 21.71 28.58" stroke="#5c940d" stroke-width="1" fill="none"></path></g><g transform="translate(324.77418287446056 241.4276239007014) rotate(0 10.454540310868254 14.799085111375803)"><path d="M6.55 20.25 C11.89 21.22, 17.52 23.2, 20.01 27.67 M7 17.98 C9.29 21.52, 12.88 23.61, 22.32 28.09" stroke="#5c940d" stroke-width="1" fill="none"></path></g><g transform="translate(324.77418287446056 241.4276239007014) rotate(0 10.454540310868254 14.799085111375803)"><path d="M16.47 12.65 C18.65 16, 21.17 20.36, 20.01 27.67 M16.92 10.37 C17.19 15.46, 18.7 19.15, 22.32 28.09" stroke="#5c940d" stroke-width="1" fill="none"></path></g></g><mask></mask><g stroke-linecap="round"><g transform="translate(347.54556688855445 275.04252411198286) rotate(0 9.679086141443747 7.24814045974307)"><path d="M1.03 -0.07 C3.83 2.3, 14.35 12.04, 17 14.66 M0.12 -1.15 C3.26 1.29, 16.04 12.63, 19.24 15.65" stroke="#5c940d" stroke-width="1" fill="none"></path></g><g transform="translate(347.54556688855445 275.04252411198286) rotate(0 9.679086141443747 7.24814045974307)"><path d="M8.15 10.25 C10.71 11.51, 15.22 14.87, 20.17 15.35 M7.71 11.08 C11.24 12.67, 15.36 14.34, 19.01 15.39" stroke="#5c940d" stroke-width="1" fill="none"></path></g><g transform="translate(347.54556688855445 275.04252411198286) rotate(0 9.679086141443747 7.24814045974307)"><path d="M13.63 4.22 C14.46 7.46, 17.21 12.75, 20.17 15.35 M13.19 5.05 C15.03 8.55, 17.43 12.12, 19.01 15.39" stroke="#5c940d" stroke-width="1" fill="none"></path></g></g><mask></mask><g stroke-linecap="round"><g transform="translate(369.2325992829296 291.30779840776415) rotate(0 8.183513357234006 4.910824640941655)"><path d="M0.02 0.14 C2.78 1.76, 15.08 9.15, 17.8 10.65 M-1.43 -0.83 C1.16 0.37, 14.58 7.17, 17.37 9" stroke="#5c940d" stroke-width="1" fill="none"></path></g><g transform="translate(369.2325992829296 291.30779840776415) rotate(0 8.183513357234006 4.910824640941655)"><path d="M7.9 8.23 C12.35 7.69, 14.95 9.35, 17.04 8.57 M8.01 7.02 C10.07 7.59, 11.41 8.23, 17.55 8.97" stroke="#5c940d" stroke-width="1" fill="none"></path></g><g transform="translate(369.2325992829296 291.30779840776415) rotate(0 8.183513357234006 4.910824640941655)"><path d="M11.15 2.43 C14.35 4.21, 15.65 8.19, 17.04 8.57 M11.26 1.22 C12.68 2.97, 13.35 4.79, 17.55 8.97" stroke="#5c940d" stroke-width="1" fill="none"></path></g></g><mask></mask><g stroke-linecap="round"><g transform="translate(386.04004938857025 301.60913879509246) rotate(0 7.135009272116406 2.9945690380139354)"><path d="M-0.53 -0.31 C1.83 0.89, 12.28 6.36, 14.8 7.5 M1.39 -1.51 C3.51 -0.72, 11.63 4.1, 13.66 5.61" stroke="#5c940d" stroke-width="1" fill="none"></path></g><g transform="translate(386.04004938857025 301.60913879509246) rotate(0 7.135009272116406 2.9945690380139354)"><path d="M5.29 3.44 C8.69 4.02, 10.88 4.6, 14.34 4.94 M5.54 3.49 C7.44 4.49, 8.71 4.42, 13.64 5.43" stroke="#5c940d" stroke-width="1" fill="none"></path></g><g transform="translate(386.04004938857025 301.60913879509246) rotate(0 7.135009272116406 2.9945690380139354)"><path d="M8.43 -1.35 C10.74 0.9, 11.82 3.17, 14.34 4.94 M8.67 -1.3 C9.94 0.65, 10.58 1.54, 13.64 5.43" stroke="#5c940d" stroke-width="1" fill="none"></path></g></g><mask></mask><g stroke-linecap="round"><g transform="translate(400.67879625477343 307.57307270354556) rotate(0 8.163400405840775 1.940286507344183)"><path d="M-0.53 0.14 C2.32 0.74, 13.83 2.71, 16.86 3.57 M1.39 -0.83 C4.11 -0.09, 13.28 3.98, 15.94 4.71" stroke="#5c940d" stroke-width="1" fill="none"></path></g><g transform="translate(400.67879625477343 307.57307270354556) rotate(0 8.163400405840775 1.940286507344183)"><path d="M7.37 4.77 C9.12 5.39, 12.8 4.67, 15.48 4.65 M6.88 4.37 C9.64 4.61, 12.5 5.12, 15.96 4.98" stroke="#5c940d" stroke-width="1" fill="none"></path></g><g transform="translate(400.67879625477343 307.57307270354556) rotate(0 8.163400405840775 1.940286507344183)"><path d="M9.38 -0.82 C10.57 1.34, 13.69 2.18, 15.48 4.65 M8.9 -1.21 C11.11 0.62, 13.39 2.72, 15.96 4.98" stroke="#5c940d" stroke-width="1" fill="none"></path></g></g><mask></mask><g transform="translate(339.41292974066386 207.81272368941995) rotate(0 116 11.5)"><svg version="1.1" viewBox="0 0 232 23" width="232" height="23"><g font-family="Helvetica, Segoe UI Emoji" font-size="20px" color="#5c940d"><text style="white-space: pre;" fill="#5c940d" direction="ltr" text-anchor="start" x="0" y="18">descenso por el gradiente</text></g></svg></g></svg>